<svg id="Capa_1" data-name="Capa 1" xmlns="http://www.w3.org/2000/svg" viewBox="0 0 500 500"><defs><style>.cls-1{fill:#fff;}</style></defs><path class="cls-1" d="M237.65,58h24c1,.21,1.92.48,2.89.62,8.74,1.29,17.58,2.1,26.22,3.9C376.1,80.33,440.1,158.3,441.21,245.69c.63,49.26-14.7,92.88-46.94,130.12-29.64,34.25-67,55.32-111.63,63.28-7,1.24-14,2-21,2.91h-24a15.9,15.9,0,0,0-2.5-.59c-33-2.48-63.47-12.61-90.89-31.11C98.92,379.71,71,337.41,61,283.45c-1.32-7.09-2-14.3-3-21.45V238c.22-1.09.47-2.17.64-3.26,1.52-9.73,2.43-19.6,4.63-29.17C80.4,131.24,141.69,73.65,217,60.87,223.83,59.71,230.76,59,237.65,58Zm98.81,118.89H162.79v20.48H336.46Zm0,62.86H162.91v20.5H336.49ZM162.78,323.13H336.34V302.62H162.78Z"/></svg>